<svg xmlns="http://www.w3.org/2000/svg" viewBox="0 0 1200 760" role="img" aria-label="Abstract music notes over flowing audio waves">
  <defs>
    <linearGradient id="bg" x1="0" x2="1" y1="0" y2="1">
      <stop offset="0" stop-color="#10242a"/>
      <stop offset="0.48" stop-color="#0e5d63"/>
      <stop offset="1" stop-color="#f0a33a"/>
    </linearGradient>
    <linearGradient id="wave" x1="0" x2="1">
      <stop offset="0" stop-color="#9be7df" stop-opacity="0.15"/>
      <stop offset="0.5" stop-color="#ffffff" stop-opacity="0.76"/>
      <stop offset="1" stop-color="#ffc85f" stop-opacity="0.3"/>
    </linearGradient>
    <filter id="soft" x="-20%" y="-20%" width="140%" height="140%">
      <feGaussianBlur stdDeviation="10"/>
    </filter>
    <filter id="shadow" x="-20%" y="-20%" width="140%" height="140%">
      <feDropShadow dx="0" dy="16" stdDeviation="18" flood-color="#061114" flood-opacity="0.35"/>
    </filter>
  </defs>
  <rect width="1200" height="760" fill="url(#bg)"/>
  <path d="M-60 560 C130 440 250 690 430 548 C590 422 700 470 850 562 C990 650 1110 520 1260 610 L1260 820 L-60 820 Z" fill="#061114" opacity="0.32"/>
  <path d="M-30 510 C125 386 252 643 426 498 C579 372 695 420 848 516 C992 606 1104 478 1234 564" fill="none" stroke="url(#wave)" stroke-width="9" stroke-linecap="round"/>
  <path d="M-30 456 C134 328 252 576 414 440 C575 304 704 360 858 458 C1016 558 1122 406 1234 498" fill="none" stroke="#ffffff" stroke-opacity="0.28" stroke-width="4" stroke-linecap="round"/>
  <path d="M-30 616 C134 510 252 716 414 606 C585 490 704 526 858 618 C1010 708 1112 604 1234 676" fill="none" stroke="#f8ca70" stroke-opacity="0.34" stroke-width="5" stroke-linecap="round"/>
  <g filter="url(#soft)" opacity="0.28">
    <circle cx="190" cy="150" r="92" fill="#9be7df"/>
    <circle cx="930" cy="200" r="120" fill="#ffd171"/>
    <circle cx="760" cy="610" r="90" fill="#ff8a68"/>
  </g>
  <g filter="url(#shadow)" fill="#f8fbf9">
    <g transform="translate(520 105) rotate(-8)">
      <rect x="112" y="20" width="24" height="286" rx="12"/>
      <rect x="286" y="-12" width="24" height="286" rx="12"/>
      <path d="M132 18 L310 -18 L310 52 L132 88 Z"/>
      <ellipse cx="84" cy="318" rx="70" ry="48" transform="rotate(-18 84 318)"/>
      <ellipse cx="258" cy="288" rx="70" ry="48" transform="rotate(-18 258 288)"/>
    </g>
    <g transform="translate(220 260) rotate(11) scale(.74)">
      <rect x="132" y="8" width="24" height="258" rx="12"/>
      <path d="M154 14 C258 30 306 74 300 132 C294 182 254 204 214 210 C252 178 252 132 220 108 C198 92 172 82 154 80 Z"/>
      <ellipse cx="104" cy="282" rx="74" ry="49" transform="rotate(-18 104 282)"/>
    </g>
    <g transform="translate(895 388) rotate(-16) scale(.62)">
      <rect x="120" y="6" width="24" height="240" rx="12"/>
      <path d="M142 12 C238 26 284 64 286 118 C286 166 250 190 210 198 C244 162 238 126 210 104 C190 88 162 80 142 76 Z"/>
      <ellipse cx="92" cy="260" rx="72" ry="48" transform="rotate(-18 92 260)"/>
    </g>
  </g>
  <g opacity="0.72" fill="#fff4d4">
    <circle cx="340" cy="126" r="8"/>
    <circle cx="406" cy="174" r="5"/>
    <circle cx="834" cy="128" r="6"/>
    <circle cx="1004" cy="312" r="7"/>
    <circle cx="170" cy="478" r="6"/>
    <circle cx="746" cy="288" r="5"/>
  </g>
</svg>
